<svg width="1440" height="2047" viewBox="0 0 1440 2047" fill="none" xmlns="http://www.w3.org/2000/svg">
<rect width="1440" height="2047" fill="white"/>
<path d="M959.946 216.174C965.424 215.489 950.965 214.182 948.987 214.182C942.161 214.182 935.335 214.182 928.509 214.182C916.065 214.182 904.348 217.88 891.758 218.167C859.791 218.893 826.552 245.101 811.504 271.853C807.061 279.753 801.885 285.702 798.553 294.324C794.611 304.529 792.239 315.266 789.587 325.872C786.927 336.511 786.899 346.811 786.598 357.642C786.263 369.689 782.919 381.703 785.048 393.95C788.76 415.29 786.599 439.017 793.018 459.702C795.639 468.146 796.561 480.277 796.561 489.147C796.561 500.828 799.476 512.132 798.442 524.016C797.56 534.168 792.196 544.405 790.14 554.457C787.797 565.915 784.91 577.179 782.613 588.661C777.003 616.711 770.377 641.216 759.589 667.697C736.682 723.923 674.413 753.4 626.755 784.038C591.495 806.704 548.778 800.587 511.633 815.032C498.858 820 485.003 822.11 471.783 823.998C456.44 826.19 441.837 829.865 425.955 829.865" stroke="black" stroke-width="3" stroke-linecap="round"/>
<path d="M433.893 833.787C434.962 825.237 359.014 834.716 347.689 838.76C325.398 846.721 300.902 849.587 278.062 858.469C263.077 864.297 243.149 866.118 229.986 875.231C220.319 881.924 206.08 881.484 196.83 888.678C155.085 921.146 112.498 937.662 94.9689 992.197C82.3305 1031.52 74.8659 1080.8 86.4958 1121.5C94.289 1148.78 84.2476 1185.4 97.5477 1210.1C112.033 1237.01 125.822 1260.86 149.123 1281.57C191.667 1319.39 255.427 1326.71 307.902 1344.2C345.338 1356.68 385.344 1351.41 423.763 1355.99C463.792 1360.75 504.576 1355.96 544.781 1357.83C572.039 1359.1 599.919 1364.9 626.933 1368.33C658.508 1372.34 689.776 1373.82 721.611 1374.22C766.446 1374.79 810.508 1388.4 854.97 1390.8C873.71 1391.81 903.082 1397.47 920.545 1404.06C931.52 1408.21 937.938 1418.89 947.806 1424.69C963.43 1433.88 980.324 1453.8 1000.86 1453.8" stroke="black" stroke-width="3" stroke-linecap="round"/>
<path d="M1004.17 1453.8C989.186 1453.8 1033.04 1463.17 1048.01 1463.74C1072.14 1464.67 1109.05 1480.88 1126.85 1496.9C1140.12 1508.84 1155.69 1518.62 1169.95 1529.32C1190.38 1544.64 1202.11 1565.01 1216.37 1585.68C1243.35 1624.81 1259.29 1672.74 1265.36 1719.78C1268.35 1742.94 1258.26 1758.36 1253.57 1779.46C1249.25 1798.91 1239.32 1831.34 1223 1844.3C1193.93 1867.38 1170.69 1888.5 1136.79 1905.45C1119.89 1913.91 1098.96 1926.03 1083.74 1937.13C1066.07 1950.03 1049.86 1966.05 1027.38 1970.29C991.109 1977.13 962.385 1994.23 924.597 1994.23" stroke="black" stroke-width="3" stroke-linecap="round"/>
<path d="M965.611 209.561C962.837 209.561 960.497 208.639 960.167 212.767C959.76 217.859 960.845 218.931 965.611 220.255C968.035 220.929 974.102 220.968 974.536 217.492C974.927 214.368 972.705 211.298 970.06 209.81C967.933 208.614 964.48 206.914 962.626 209.451C961.376 211.162 959.935 215.45 962.737 216.635C964.77 217.496 968.67 220.894 970.585 218.128C972.566 215.266 972.452 211.825 968.485 210.943C965.426 210.263 959.003 211.851 963.151 216C964.799 217.648 971.082 220.004 971.082 216.027C971.082 213.365 965.595 208.961 965.141 213.043C964.903 215.183 965.267 217.155 967.13 218.459C968.603 219.49 971.524 218.584 971.524 216.525C971.524 212.888 963.986 211.703 965.224 215.53C966.887 220.672 973.752 214.673 968.982 213.651C967.601 213.355 965.398 214.071 966.605 215.917C967.075 216.634 969.544 217.068 969.59 215.917C969.715 212.78 965.899 214.808 969.59 217.022" stroke="#FFB02E" stroke-width="3" stroke-linecap="round"/>
<path d="M967.6 209.561C964.185 209.561 961.729 211.229 963.732 215.033C964.83 217.12 969.171 218.514 971.331 218.514C973.978 218.514 975.051 215.027 972.574 213.651C970.212 212.338 969.248 209.734 966.357 209.091C960.581 207.808 959.246 213.918 962.847 217.52C965.115 219.787 969.369 220.172 971.8 217.741C973.809 215.732 972.284 214.639 970.087 213.54" stroke="#FFB02E" stroke-width="3" stroke-linecap="round"/>
<path d="M923.876 1990.63C923.356 1989.24 919.634 1989.52 918.718 1990.17C915.738 1992.25 917.527 1996.37 919.726 1998.32C923.038 2001.26 928.056 1993.52 925.201 1991.78C923.533 1990.76 922.042 1990.3 920.014 1990.68C917.02 1991.25 918.399 1995.59 920.014 1996.82C925.044 2000.65 929.39 1992.07 922.723 1990.74C913.695 1988.94 918.455 2002.21 923.328 1997.34C925.17 1995.5 924.562 1992.95 922.32 1991.89C920.219 1990.9 918.272 1993.95 919.438 1995.7C920.603 1997.45 923.818 1997.15 923.818 1994.78C923.818 1992.53 920.067 1991.69 919.755 1994.03C919.404 1996.66 922.786 1997.99 923.3 1995.04C923.7 1992.73 922.585 1990.71 920.274 1992.44C918.703 1993.62 920.296 1995.29 921.801 1995.29C923.97 1995.29 924.243 1991.75 922.723 1990.63C921.037 1989.38 917.969 1989.33 918.257 1992.21C918.418 1993.82 921.399 1997.68 922.55 1994.72C923.464 1992.37 921.576 1989.64 919.092 1989.59C915.45 1989.51 915.186 1992.14 915.692 1995.18C916.73 2001.41 926.752 1996.04 921.282 1991.17C915.501 1986.03 913.113 1998.93 919.842 1998.93C927.319 1998.93 926.334 1990.17 919.467 1990.17C916.441 1990.17 915.247 1993.83 916.729 1996.22C919.081 2000 923.415 1998.81 924.913 1995.18C927.869 1988.02 914.225 1989.46 919.726 1996.33" stroke="#FFB02E" stroke-width="3" stroke-linecap="round"/>
</svg>
